<svg xmlns="http://www.w3.org/2000/svg" xmlns:xlink="http://www.w3.org/1999/xlink" id="Layer_1" data-name="Layer 1" viewBox="0 0 160 160"><defs><style>.cls-1{fill:none}.cls-2{fill:url(#radial-gradient)}.cls-3{fill:#25572c}.cls-4{fill:#b5b5b5}.cls-5{fill:#363636}.cls-6{fill:#139e0e}.cls-7,.cls-8{fill:#fff}.cls-7{opacity:.2;isolation:isolate}.cls-9{fill:#cfcfcf}.cls-10,.cls-11{opacity:.2}.cls-10{fill:url(#radial-gradient-2)}.cls-11{fill:url(#radial-gradient-3)}.cls-14{clip-path:url(#clip-path-3)}.cls-15{fill:#696969}</style><radialGradient id="radial-gradient" cx="80" cy="80" r="74.67" gradientUnits="userSpaceOnUse"><stop offset="0" stop-color="#67ecff"/><stop offset=".35" stop-color="#64eafe"/><stop offset=".56" stop-color="#5ce1fb"/><stop offset=".74" stop-color="#4dd4f6"/><stop offset=".9" stop-color="#39c0ef"/><stop offset="1" stop-color="#27afe9"/></radialGradient><radialGradient id="radial-gradient-2" cx="106.09" cy="44.87" r="5.67" gradientTransform="translate(0 51.14) scale(1 0.82)" gradientUnits="userSpaceOnUse"><stop offset="0" stop-color="#f27e32"/><stop offset=".02" stop-color="#f27d31" stop-opacity=".98"/><stop offset="1" stop-color="#e34c00" stop-opacity="0"/></radialGradient><radialGradient id="radial-gradient-3" cx="75.87" cy="44.87" r="5.67" xlink:href="#radial-gradient-2"/><clipPath id="clip-path"><polygon points="91.66 239.13 98.1 249.95 86.69 270.27 80.25 259.45 91.66 239.13" class="cls-1"/></clipPath><clipPath id="clip-path-2"><path d="M104.62,249.47l-7-11.76-2.31,4.12,4.75,8-7,12.42L95.35,266c1.33,2.34,3.43,2.56,4.61.47l5.07-9C106.16,255.43,106,251.82,104.62,249.47Z" class="cls-1"/></clipPath><clipPath id="clip-path-3"><path d="M80-191.06A8,8,0,0,1,84-190l54,31.47a8,8,0,0,1,4,6.91v63.18a8,8,0,0,1-4,6.91L84-50a8,8,0,0,1-4,1.09A8,8,0,0,1,76-50L22-81.5a8,8,0,0,1-4-6.91v-63.18a8,8,0,0,1,4-6.91L76-190a8,8,0,0,1,4-1.09" class="cls-1"/></clipPath></defs><title>Achievements - Build</title><path d="M150,111.59V48.41a16,16,0,0,0-7.94-13.83l-54-31.46a16,16,0,0,0-16.12,0l-54,31.46A16,16,0,0,0,10,48.41v63.18a16,16,0,0,0,7.94,13.83l54,31.46a16,16,0,0,0,16.12,0l54-31.46A16,16,0,0,0,150,111.59Z" class="cls-2"/><path d="M80,8.94A8,8,0,0,1,84,10L138,41.5a8,8,0,0,1,4,6.91v63.18a8,8,0,0,1-4,6.91L84,150A8,8,0,0,1,76,150L22,118.5a8,8,0,0,1-4-6.91V48.41a8,8,0,0,1,4-6.91L76,10a8,8,0,0,1,4-1.09m0-8a16,16,0,0,0-8.06,2.18l-54,31.46A16,16,0,0,0,10,48.41v63.18a16,16,0,0,0,7.94,13.83l54,31.46a16,16,0,0,0,16.12,0l54-31.46A16,16,0,0,0,150,111.59V48.41a16,16,0,0,0-7.94-13.83l-54-31.46A16,16,0,0,0,80,.94Z" class="cls-3"/><path d="M37.41,81.15a1.66,1.66,0,0,0,1.72,1.71H81a1.66,1.66,0,0,0,1.72-1.71V51.36H37.41Z" class="cls-4"/><path d="M81,44.73H39.13a1.63,1.63,0,0,0-1.72,1.66v5H82.72v-5A1.63,1.63,0,0,0,81,44.73" class="cls-5"/><rect width="39.79" height="25.97" x="40.17" y="54.13" class="cls-6"/><path d="M39.14,44.73a1.85,1.85,0,0,0-1.73,1.7V81.16a1.84,1.84,0,0,0,1.73,1.7h1.92L77.2,44.73Z" class="cls-7"/><polygon points="50.12 60.41 42.93 57.44 42.93 58.88 48.49 61.02 48.49 61.05 42.93 63.2 42.93 64.63 50.12 61.66 50.12 60.41" class="cls-8"/><rect width="6.63" height="1.11" x="51.77" y="62.97" class="cls-8"/><path d="M116.71,83.23h-.4a25.65,25.65,0,0,0-51.16-2.82,17,17,0,0,0-14-6.84,17.91,17.91,0,1,0,0,35.81h65.55a13.08,13.08,0,1,0,0-26.15" class="cls-8"/><circle cx="103.33" cy="79.42" r="2.76"/><circle cx="77.58" cy="79.42" r="2.76"/><path d="M90.51,89.1a8.12,8.12,0,0,1-7.3-4.53,1,1,0,0,1,1.8-.89,6.13,6.13,0,0,0,11,0,1,1,0,0,1,1.79.89A8.1,8.1,0,0,1,90.51,89.1Z" class="cls-9"/><ellipse cx="106.09" cy="88.1" class="cls-10" rx="5.67" ry="4.67"/><ellipse cx="75.87" cy="88.1" class="cls-11" rx="5.67" ry="4.67"/><ellipse cx="76.47" cy="78.23" class="cls-8" rx=".5" ry=".38" transform="translate(-26.94 42.55) rotate(-26.62)"/><ellipse cx="102.47" cy="78.23" class="cls-8" rx=".5" ry=".38" transform="translate(-24.19 54.2) rotate(-26.62)"/><g class="cls-14"><rect width="138.43" height="73.56" x="10.57" y="-72" class="cls-15"/></g></svg>