<svg xmlns="http://www.w3.org/2000/svg" xmlns:xlink="http://www.w3.org/1999/xlink" id="Layer_1" data-name="Layer 1" viewBox="0 0 160 160"><defs><style>.cls-1{fill:url(#radial-gradient)}.cls-2{fill:#048edd}.cls-3,.cls-6{fill:#b5b5b5}.cls-3,.cls-4{fill-rule:evenodd}.cls-11,.cls-4{fill:#9c9c9c}.cls-5{fill:none}.cls-7{fill:url(#linear-gradient)}.cls-8{fill:url(#linear-gradient-2)}.cls-9{fill:#0078db}.cls-10{fill:#fdf300}.cls-12{fill:#696969}.cls-13{fill:#f0f0f0;opacity:.2}.cls-14{fill:#e34c00}.cls-15{fill:#019b8b}.cls-16{fill:#139e0e}.cls-17{fill:#9b76d2}</style><radialGradient id="radial-gradient" cx="76.71" cy="146.01" r="146.71" gradientUnits="userSpaceOnUse"><stop offset="0" stop-color="#f3fdff"/><stop offset=".43" stop-color="#f0fdff"/><stop offset=".69" stop-color="#e8fcff"/><stop offset=".91" stop-color="#dafaff"/><stop offset="1" stop-color="#d1f9ff"/></radialGradient><linearGradient id="linear-gradient" x1="44.15" x2="103.26" y1="110.47" y2="110.47" gradientUnits="userSpaceOnUse"><stop offset="0" stop-color="#048edd"/><stop offset=".26" stop-color="#0689d9"/><stop offset=".59" stop-color="#0d79cf"/><stop offset=".95" stop-color="#1760be"/><stop offset="1" stop-color="#195bbb"/></linearGradient><linearGradient id="linear-gradient-2" x1="39.57" x2="39.57" y1="69.1" y2="89.96" gradientUnits="userSpaceOnUse"><stop offset="0" stop-color="#195bbb"/><stop offset=".05" stop-color="#1760be"/><stop offset=".41" stop-color="#0d79cf"/><stop offset=".74" stop-color="#0689d9"/><stop offset="1" stop-color="#048edd"/></linearGradient></defs><title>Achievements - Build</title><path d="M150,111.59V48.41a16,16,0,0,0-7.94-13.83l-54-31.46a16,16,0,0,0-16.12,0l-54,31.46A16,16,0,0,0,10,48.41v63.18a16,16,0,0,0,7.94,13.83l54,31.46a16,16,0,0,0,16.12,0l54-31.46A16,16,0,0,0,150,111.59Z" class="cls-1"/><path d="M80,8.94A8,8,0,0,1,84,10L138,41.5a8,8,0,0,1,4,6.91v63.18a8,8,0,0,1-4,6.91L84,150A8,8,0,0,1,76,150L22,118.5a8,8,0,0,1-4-6.91V48.41a8,8,0,0,1,4-6.91L76,10a8,8,0,0,1,4-1.09m0-8a16,16,0,0,0-8.06,2.18l-54,31.46A16,16,0,0,0,10,48.41v63.18a16,16,0,0,0,7.94,13.83l54,31.46a16,16,0,0,0,16.12,0l54-31.46A16,16,0,0,0,150,111.59V48.41a16,16,0,0,0-7.94-13.83l-54-31.46A16,16,0,0,0,80,.94Z" class="cls-2"/><polygon points="135 120.31 131 122.64 131 91 135 91 135 120.31" class="cls-3"/><polygon points="126 91 133 98 140 91 126 91" class="cls-3"/><polygon points="131 122.64 131 96 136 91 124 91 129 96 129 123.81 131 122.64" class="cls-4"/><path d="M80,8.91a8.12,8.12,0,0,1,4,1.09l54,31.46a8.08,8.08,0,0,1,4,6.95v63.18a8.08,8.08,0,0,1-4,7L84.05,150a8.07,8.07,0,0,1-8.1,0L22,118.54a8.08,8.08,0,0,1-4-7V48.41a8.08,8.08,0,0,1,4-6.95L76,10a8.12,8.12,0,0,1,4-1.09" class="cls-5"/><rect width="27" height="4" x="115" y="88" class="cls-6"/><polygon points="31 123.76 27 121.43 27 91 31 91 31 123.76" class="cls-3"/><polygon points="22 91 29 98 36 91 22 91" class="cls-3"/><polygon points="27 121.43 27 96 32 91 20 91 25 96 25 120.27 27 121.43" class="cls-4"/><polygon points="74 91 81 98 88 91 74 91" class="cls-3"/><polygon points="44.15 95.66 68.92 125.29 68.92 113.38 102.85 125.29 103.26 124.94 103.26 104.66 44.15 95.66" class="cls-7"/><path d="M83,150.47V91H79v60a8.26,8.26,0,0,0,1,.07A8.1,8.1,0,0,0,83,150.47Z" class="cls-3"/><path d="M79,151V96l5-5H72l5,5v54.47A8.07,8.07,0,0,0,79,151Z" class="cls-4"/><rect width="85.26" height="4" x="18" y="88" class="cls-6"/><polygon points="35.35 68.48 35 68.93 35 94.27 44.15 95.66 44.14 95.66 44.14 66.85 35.35 68.48" class="cls-8"/><path d="M80,8.91a8.12,8.12,0,0,1,4,1.09l54,31.46a8.08,8.08,0,0,1,4,6.95v63.18a8.08,8.08,0,0,1-4,7L84.05,150a8.07,8.07,0,0,1-8.1,0L22,118.54a8.08,8.08,0,0,1-4-7V48.41a8.08,8.08,0,0,1,4-6.95L76,10a8.12,8.12,0,0,1,4-1.09" class="cls-5"/><polygon points="103.11 55.95 74.88 35.15 74.88 44.84 44.14 57.02 35.35 68.48 44.14 66.85 103.11 55.95" class="cls-9"/><rect width="30" height="18" x="99" y="71.96" class="cls-10"/><path d="M127,74V88H101V74h26m2-2H99V90h30V72Z" class="cls-11"/><path d="M100,70h28a1,1,0,0,1,1,1v3a0,0,0,0,1,0,0H99a0,0,0,0,1,0,0V71A1,1,0,0,1,100,70Z" class="cls-12"/><path d="M100.15,70A1.16,1.16,0,0,0,99,71.15V90h2.31l24.23-20Z" class="cls-13"/><polygon points="125 51.9 103.11 55.95 103.26 56.05 103.26 104.66 103.26 124.94 125 106.46 125 51.9" class="cls-9"/><rect width="30" height="18" x="65" y="71.96" class="cls-14"/><path d="M93,74V88H67V74H93m2-2H65V90H95V72Z" class="cls-11"/><path d="M66,70H94a1,1,0,0,1,1,1v3a0,0,0,0,1,0,0H65a0,0,0,0,1,0,0V71A1,1,0,0,1,66,70Z" class="cls-12"/><path d="M66.15,70A1.16,1.16,0,0,0,65,71.15V90h2.31L91.54,70Z" class="cls-13"/><rect width="30" height="18" x="31" y="71.96" class="cls-15"/><path d="M59,74V88H33V74H59m2-2H31V90H61V72Z" class="cls-11"/><path d="M32,70H60a1,1,0,0,1,1,1v3a0,0,0,0,1,0,0H31a0,0,0,0,1,0,0V71A1,1,0,0,1,32,70Z" class="cls-12"/><path d="M32.15,70A1.16,1.16,0,0,0,31,71.15V90h2.31L57.54,70Z" class="cls-13"/><rect width="7.04" height="14" x="135" y="73.96" class="cls-16"/><path d="M142,70h-7.89A1.16,1.16,0,0,0,133,71.15V90h2.31L142,84.45Z" class="cls-13"/><path d="M142,70h-8a1,1,0,0,0-1,1v3h9Z" class="cls-12"/><polygon points="133 73.96 133 89.96 142 89.96 142 87.96 135 87.96 135 73.96 133 73.96" class="cls-10"/><polygon points="135 73.96 133 73.96 133 89.96 142 89.96 142 87.96 135 87.96 135 73.96 135 73.96" class="cls-11"/><rect width="9.04" height="18" x="17.96" y="71.96" class="cls-17"/><polygon points="17.96 71.96 17.96 73.96 25 73.96 25 87.96 17.96 87.96 17.96 89.96 27 89.96 27 71.96 17.96 71.96" class="cls-11"/><path d="M26,70H18v4h9V71A1,1,0,0,0,26,70Z" class="cls-12"/></svg>