<svg xmlns="http://www.w3.org/2000/svg" xmlns:xlink="http://www.w3.org/1999/xlink" id="Layer_1" data-name="Layer 1" viewBox="0 0 160 160"><defs><style>.cls-1{fill:none}.cls-2{fill:#2c4a74}.cls-3{fill:#048edd}.cls-4{fill:#818181}.cls-5{fill:#e5e5e5}.cls-6{fill:url(#linear-gradient)}.cls-7{clip-path:url(#clip-path)}.cls-8{clip-path:url(#clip-path-2)}.cls-9{fill:#1daeff}.cls-10{clip-path:url(#clip-path-3)}.cls-11{fill:#1d94dd}.cls-12{fill:url(#radial-gradient)}</style><linearGradient id="linear-gradient" x1="88.07" x2="126.14" y1="24.42" y2="24.42" gradientUnits="userSpaceOnUse"><stop offset="0" stop-color="#e7e7e7"/><stop offset="1" stop-color="#b5b5b5"/></linearGradient><clipPath id="clip-path"><polygon points="91.66 39.13 98.1 49.95 86.69 70.28 80.25 59.45 91.66 39.13" class="cls-1"/></clipPath><clipPath id="clip-path-2"><rect width="1357.69" height="1331.79" x="-466.75" y="-130.76" class="cls-1" transform="translate(-358.38 458.25) rotate(-60.7)"/></clipPath><clipPath id="clip-path-3"><path d="M104.62,49.47l-7-11.76-2.31,4.12,4.75,8-7,12.42L95.35,66c1.33,2.34,3.43,2.56,4.61.47l5.07-9C106.16,55.43,106,51.82,104.62,49.47Z" class="cls-1"/></clipPath><radialGradient id="radial-gradient" cx="73.85" cy="104.47" r="51.8" gradientUnits="userSpaceOnUse"><stop offset="0" stop-color="#e7e7e7"/><stop offset=".3" stop-color="#e3e3e3"/><stop offset=".57" stop-color="#d8d8d8"/><stop offset=".83" stop-color="#c6c6c6"/><stop offset="1" stop-color="#b5b5b5"/></radialGradient></defs><title>Achievements - Build</title><path d="M80,155.12a12.08,12.08,0,0,1-6-1.61L19.35,122a12,12,0,0,1-6-10.41V48.45a12,12,0,0,1,6-10.41L74,6.49a12,12,0,0,1,12,0L140.65,38a12,12,0,0,1,6,10.41v63.1a12,12,0,0,1-6,10.41L86,153.51A12.08,12.08,0,0,1,80,155.12Z" class="cls-2"/><path d="M80,8.86a8.1,8.1,0,0,1,4,1.08l54.64,31.55a8.06,8.06,0,0,1,4,7v63.1a8.06,8.06,0,0,1-4,7L84,150.06a8,8,0,0,1-8,0L21.34,118.51a8.06,8.06,0,0,1-4-7V48.45a8.06,8.06,0,0,1,4-7L76,9.94a8.1,8.1,0,0,1,4-1.08m0-8a16,16,0,0,0-8,2.15L17.36,34.59a16,16,0,0,0-8,13.86v63.1a16,16,0,0,0,8,13.86L72,157a16,16,0,0,0,16,0l54.64-31.54a16,16,0,0,0,8-13.86V48.45a16,16,0,0,0-8-13.86L88,3.05A16,16,0,0,0,80,.9Z" class="cls-3"/><polygon points="120.02 90.63 103.9 89.93 92.18 83.36 86.11 61.75 116.97 52.82 120.02 90.63" class="cls-4"/><polygon points="49.34 50.97 58.33 64.36 70.05 70.94 91.65 64.86 83.19 33.87 49.34 50.97" class="cls-4"/><rect width="48.65" height="38.67" x="68.71" y="36.5" class="cls-5" transform="translate(-1.19 109.65) rotate(-60.7)"/><polygon points="97.99 86.52 83.56 96.15 63.56 84.93 64.27 67.59 97.99 86.52" class="cls-3"/><path d="M121.8,44.09c9.82-17.51-.1-39.34-.1-39.34S97.9,7.66,88.07,25.16Z" class="cls-6"/><g class="cls-7"><g class="cls-8"><rect width="38.84" height="20.16" x="69.75" y="44.62" class="cls-9" transform="translate(-2.16 105.71) rotate(-60.7)"/></g></g><g class="cls-10"><g class="cls-8"><rect width="35.72" height="25.34" x="80.33" y="40.52" class="cls-11" transform="translate(3.75 112.79) rotate(-60.7)"/></g></g><path d="M129.67,122.52a20.32,20.32,0,0,0-2.14-1.83A6.91,6.91,0,0,0,117,111.8a6.85,6.85,0,0,0-2,4.73,20.46,20.46,0,0,0-11.85,3.94A31.36,31.36,0,0,0,83,115.4h0s-12.67.8.56-19.25l-20-11.22a29.84,29.84,0,0,1-6.3,17,6.88,6.88,0,0,0-6.69-4.44A31.37,31.37,0,0,0,28.69,70.68,20.41,20.41,0,0,0,17.36,57.85v53.7a8,8,0,0,0,4,6.93L76,150a8,8,0,0,0,8,0l46.35-26.76C130.12,123,129.91,122.76,129.67,122.52Z" class="cls-12"/></svg>