<svg xmlns="http://www.w3.org/2000/svg" xmlns:xlink="http://www.w3.org/1999/xlink" width="75" height="75" version="1.1" viewBox="0 0 75 75"><title>Group 12</title><desc>Created with Sketch.</desc><defs><linearGradient id="linearGradient-1" x1="14.673%" x2="85.383%" y1="14.601%" y2="85.311%"><stop offset="39.45%" stop-color="#999"/><stop offset="55.71%" stop-color="#949494"/><stop offset="73.66%" stop-color="#878787"/><stop offset="92.35%" stop-color="#717171"/><stop offset="100%" stop-color="#666"/></linearGradient><linearGradient id="linearGradient-2" x1="50%" x2="50%" y1="100%" y2="0%"><stop offset="0%" stop-color="#F2F2F2"/><stop offset="100%" stop-color="#B3B3B3"/></linearGradient><radialGradient id="radialGradient-3" cx="50%" cy="50%" r="49.849%" fx="50%" fy="50%"><stop offset="0%" stop-color="#FFF" stop-opacity="0"/><stop offset="68.897%" stop-color="#8F8F8F" stop-opacity="0"/><stop offset="100%" stop-color="#000" stop-opacity=".4"/></radialGradient></defs><g id="Page-1" fill="none" fill-rule="evenodd" stroke="none" stroke-width="1"><g id="achievements-list" transform="translate(-218.000000, -427.000000)"><g id="Group-12" transform="translate(218.000000, 427.000000)"><g id="Group-2-Copy-2" fill-rule="nonzero"><circle id="Oval" cx="37.5" cy="37.5" r="37.5" fill="url(#linearGradient-1)"/><circle id="Oval" cx="37.5" cy="37.5" r="32.5" fill="url(#linearGradient-2)"/></g><path id="Shape-Copy-2" fill="#FFF" fill-rule="nonzero" d="M65.8,34.5 C65.8,36.7 65,38.5 63.5,40.1 C62,41.6 60.1,42.4 57.9,42.4 L22.8,42.4 C20.7,42.4 18.7,41.9 16.9,40.8 C15.1,39.7 13.7,38.3 12.6,36.5 C11.5,34.7 11,32.8 11,30.6 C11,28.5 11.5,26.5 12.6,24.7 C13.7,22.9 15.1,21.5 16.9,20.4 C18.7,19.3 20.6,18.8 22.8,18.8 C24.4,18.8 26,19.2 27.6,19.9 C28.7,17.2 30.3,15.1 32.7,13.4 C35,11.8 37.6,11 40.4,11 C42.8,11 45.1,11.6 47.2,12.8 C49.3,14 51,15.7 52.2,17.8 C53.4,19.9 54,22.2 54,24.6 L54,26.5 L57.9,26.5 C60.1,26.5 61.9,27.3 63.5,28.8 C65,30.4 65.8,32.3 65.8,34.5 Z"/><path id="Page-1" fill="#0078D7" d="M46,27 L46,54.485 L22,50.918 L30.381,53.74 L30.381,53.758 L30.399,53.758 L46,59 L54,55.668 L54,30.327 L46,27 Z M31.99,33.528 L25.272,36.119 L23.5,38.33 L23.5,43.428 L26,44 L26,38.001 L37,35.767 L37,45.516 L25.816,44 L30.5,49.667 L30.5,47.394 L37.515,49.667 L41.999,46.031 L41.999,34.937 L37.097,35.653 L31.99,31.66 L31.99,33.528 Z"/><circle id="Oval-Copy-8" cx="37.5" cy="37.5" r="37.5" fill="url(#radialGradient-3)" fill-rule="nonzero"/></g></g></g></svg>